<svg xmlns="http://www.w3.org/2000/svg" xmlns:xlink="http://www.w3.org/1999/xlink" width="940" zoomAndPan="magnify" viewBox="0 0 705 591.000005" height="788" preserveAspectRatio="xMidYMid meet" version="1.0"><defs><clipPath id="dacee550cb"><path d="M 78 19.988281 L 627.808594 19.988281 L 627.808594 570.308594 L 78 570.308594 Z M 78 19.988281 " clip-rule="nonzero"/></clipPath></defs><g clip-path="url(#dacee550cb)"><path fill="#ffffff" d="M 581.832031 19.988281 L 123.738281 19.988281 C 98.410156 19.988281 78.039062 40.636719 78.039062 65.6875 L 78.039062 524.609375 C 78.039062 549.9375 98.6875 570.308594 123.738281 570.308594 L 581.558594 570.308594 C 606.886719 570.308594 627.257812 549.660156 627.257812 524.609375 L 627.257812 65.6875 C 627.53125 40.636719 607.160156 19.988281 581.832031 19.988281 Z M 240.738281 473.953125 L 159.527344 473.953125 L 159.527344 230.042969 L 240.738281 230.042969 Z M 199.996094 200.585938 C 174.394531 200.585938 153.746094 179.9375 153.746094 154.335938 C 153.746094 128.730469 174.394531 108.085938 199.996094 108.085938 C 225.597656 108.085938 246.246094 128.730469 246.246094 154.335938 C 246.246094 179.9375 225.597656 200.585938 199.996094 200.585938 Z M 546.320312 473.953125 L 464.832031 473.953125 L 462.90625 329.148438 C 462.90625 329.148438 464.832031 290.605469 422.710938 290.882812 C 380.589844 291.15625 374.808594 329.148438 374.808594 329.148438 L 374.808594 473.953125 L 292.769531 473.953125 L 292.769531 230.042969 L 371.507812 230.042969 L 371.507812 263.628906 C 371.507812 263.628906 374.808594 252.617188 392.980469 239.675781 C 411.148438 226.738281 441.15625 223.984375 454.09375 224.535156 C 467.035156 225.085938 484.652344 222.882812 514.109375 243.253906 C 545.769531 265.003906 546.59375 321.992188 546.59375 321.992188 Z M 546.320312 473.953125 " fill-opacity="1" fill-rule="nonzero"/></g></svg>