<svg xmlns="http://www.w3.org/2000/svg" xmlns:xlink="http://www.w3.org/1999/xlink" width="940" zoomAndPan="magnify" viewBox="0 0 705 591.000005" height="788" preserveAspectRatio="xMidYMid meet" version="1.0"><defs><clipPath id="77dc843163"><path d="M 79.023438 19.265625 L 628.59375 19.265625 L 628.59375 568.835938 L 79.023438 568.835938 Z M 79.023438 19.265625 " clip-rule="nonzero"/></clipPath></defs><g clip-path="url(#77dc843163)"><path fill="#ffffff" d="M 353.808594 19.265625 C 202.679688 19.265625 79.023438 142.917969 79.023438 294.050781 C 79.023438 445.183594 202.679688 568.835938 353.808594 568.835938 C 504.941406 568.835938 628.59375 445.183594 628.59375 294.050781 C 628.59375 142.917969 504.941406 19.265625 353.808594 19.265625 Z M 465.289062 415.121094 C 460.125 415.121094 457.539062 412.539062 452.375 409.953125 C 413.601562 386.679688 364.5 373.765625 312.8125 373.765625 C 284.371094 373.765625 253.375 378.929688 227.519531 384.097656 C 222.351562 384.097656 217.1875 386.679688 214.601562 386.679688 C 204.273438 386.679688 196.523438 378.929688 196.523438 368.597656 C 196.523438 358.265625 201.6875 350.519531 212.019531 350.519531 C 245.625 342.769531 279.234375 337.601562 315.421875 337.601562 C 374.859375 337.601562 429.15625 353.101562 475.675781 378.957031 C 480.84375 384.125 486.007812 386.707031 486.007812 397.039062 C 480.789062 409.953125 473.039062 415.121094 465.289062 415.121094 Z M 493.703125 342.769531 C 488.535156 342.769531 483.371094 340.1875 478.203125 337.601562 C 434.265625 309.164062 372.21875 293.664062 305.035156 293.664062 C 271.429688 293.664062 240.40625 298.832031 217.160156 303.996094 C 211.992188 306.578125 209.410156 306.578125 204.242188 306.578125 C 191.328125 306.578125 183.554688 296.25 183.554688 285.890625 C 183.554688 272.972656 188.71875 267.808594 201.632812 262.613281 C 232.65625 254.867188 263.679688 247.117188 307.617188 247.117188 C 379.996094 247.117188 447.179688 265.199219 504.0625 298.804688 C 511.8125 303.96875 516.976562 311.71875 516.976562 319.496094 C 514.394531 332.410156 506.644531 342.769531 493.703125 342.769531 Z M 527.308594 260.03125 C 522.144531 260.03125 519.558594 257.449219 511.8125 254.867188 C 460.125 226.425781 385.164062 208.34375 312.785156 208.34375 C 276.59375 208.34375 237.824219 213.511719 204.214844 221.257812 C 199.050781 221.257812 196.46875 223.84375 188.71875 223.84375 C 173.222656 226.453125 162.863281 213.511719 162.863281 198.011719 C 162.863281 182.515625 170.609375 174.738281 180.941406 172.15625 C 222.324219 161.824219 266.261719 156.65625 312.785156 156.65625 C 392.910156 156.65625 475.621094 174.738281 540.25 208.34375 C 548 213.511719 555.75 221.257812 555.75 234.203125 C 553.167969 249.699219 542.808594 260.03125 527.308594 260.03125 Z M 527.308594 260.03125 " fill-opacity="1" fill-rule="nonzero"/></g></svg>