<svg xmlns="http://www.w3.org/2000/svg" xmlns:xlink="http://www.w3.org/1999/xlink" width="940" zoomAndPan="magnify" viewBox="0 0 705 591.000005" height="788" preserveAspectRatio="xMidYMid meet" version="1.0"><defs><clipPath id="afab9aed22"><path d="M 78 85 L 627 85 L 627 530.652344 L 78 530.652344 Z M 78 85 " clip-rule="nonzero"/></clipPath></defs><g clip-path="url(#afab9aed22)"><path fill="#ffffff" d="M 570.417969 196.113281 C 570.75 200.949219 570.75 205.78125 570.75 210.652344 C 570.75 359.25 457.582031 530.621094 250.664062 530.621094 L 250.664062 530.53125 C 189.535156 530.632812 129.679688 513.136719 78.222656 480.125 C 87.105469 481.1875 96.042969 481.726562 105.003906 481.75 C 155.660156 481.792969 204.867188 464.800781 244.71875 433.511719 C 196.574219 432.601562 154.363281 401.226562 139.613281 355.414062 C 156.480469 358.667969 173.851562 358 190.402344 353.472656 C 137.914062 342.871094 100.15625 296.773438 100.15625 243.242188 C 100.15625 242.75 100.15625 242.289062 100.15625 241.816406 C 115.796875 250.523438 133.308594 255.355469 151.21875 255.894531 C 101.789062 222.886719 86.558594 157.152344 116.410156 105.746094 C 173.523438 176.007812 257.792969 218.71875 348.257812 223.234375 C 339.1875 184.175781 351.578125 143.25 380.804688 115.789062 C 426.121094 73.210938 497.382812 75.390625 539.976562 120.667969 C 565.167969 115.703125 589.316406 106.460938 611.414062 93.371094 C 603.011719 119.40625 585.445312 141.519531 561.964844 155.5625 C 584.257812 152.929688 606.050781 146.96875 626.570312 137.859375 C 611.457031 160.484375 592.429688 180.195312 570.417969 196.113281 Z M 570.417969 196.113281 " fill-opacity="1" fill-rule="nonzero"/></g></svg>