<svg xmlns="http://www.w3.org/2000/svg" xmlns:xlink="http://www.w3.org/1999/xlink" width="940" zoomAndPan="magnify" viewBox="0 0 705 591.000005" height="788" preserveAspectRatio="xMidYMid meet" version="1.0"><defs><clipPath id="8991c9baa7"><path d="M 76.128906 22.019531 L 625.699219 22.019531 L 625.699219 571.589844 L 76.128906 571.589844 Z M 76.128906 22.019531 " clip-rule="nonzero"/></clipPath></defs><g clip-path="url(#8991c9baa7)"><path fill="#ffffff" d="M 238.5 22.019531 C 148.976562 22.019531 76.128906 94.867188 76.128906 184.394531 L 76.128906 409.21875 C 76.128906 498.742188 148.976562 571.589844 238.5 571.589844 L 463.324219 571.589844 C 552.847656 571.589844 625.699219 498.742188 625.699219 409.21875 L 625.699219 184.394531 C 625.699219 94.867188 552.847656 22.019531 463.324219 22.019531 Z M 238.5 47 L 463.324219 47 C 539.347656 47 600.71875 108.371094 600.71875 184.394531 L 600.71875 409.21875 C 600.71875 485.238281 539.347656 546.609375 463.324219 546.609375 L 238.5 546.609375 C 162.480469 546.609375 101.109375 485.238281 101.109375 409.21875 L 101.109375 184.394531 C 101.109375 108.371094 162.480469 47 238.5 47 Z M 500.796875 121.941406 C 499.976562 121.941406 499.160156 121.980469 498.347656 122.0625 C 497.535156 122.140625 496.726562 122.261719 495.921875 122.421875 C 495.121094 122.582031 494.328125 122.78125 493.542969 123.015625 C 492.761719 123.253906 491.992188 123.53125 491.238281 123.84375 C 490.480469 124.15625 489.742188 124.503906 489.019531 124.890625 C 488.296875 125.277344 487.597656 125.699219 486.917969 126.152344 C 486.238281 126.605469 485.582031 127.09375 484.949219 127.613281 C 484.316406 128.132812 483.710938 128.679688 483.132812 129.257812 C 482.554688 129.835938 482.003906 130.441406 481.484375 131.074219 C 480.96875 131.707031 480.480469 132.363281 480.027344 133.042969 C 479.570312 133.722656 479.152344 134.425781 478.765625 135.148438 C 478.378906 135.867188 478.03125 136.605469 477.71875 137.363281 C 477.402344 138.117188 477.128906 138.886719 476.890625 139.671875 C 476.652344 140.453125 476.457031 141.246094 476.296875 142.050781 C 476.136719 142.851562 476.015625 143.660156 475.9375 144.472656 C 475.855469 145.289062 475.816406 146.105469 475.816406 146.921875 C 475.816406 147.742188 475.855469 148.554688 475.9375 149.371094 C 476.015625 150.183594 476.136719 150.992188 476.296875 151.796875 C 476.457031 152.597656 476.652344 153.390625 476.890625 154.171875 C 477.128906 154.957031 477.402344 155.726562 477.71875 156.480469 C 478.03125 157.238281 478.378906 157.976562 478.765625 158.699219 C 479.152344 159.417969 479.570312 160.121094 480.027344 160.800781 C 480.480469 161.480469 480.96875 162.136719 481.484375 162.769531 C 482.003906 163.402344 482.554688 164.007812 483.132812 164.585938 C 483.710938 165.164062 484.316406 165.714844 484.949219 166.234375 C 485.582031 166.75 486.238281 167.238281 486.917969 167.691406 C 487.597656 168.148438 488.296875 168.566406 489.019531 168.953125 C 489.742188 169.339844 490.480469 169.6875 491.238281 170 C 491.992188 170.3125 492.761719 170.589844 493.542969 170.828125 C 494.328125 171.066406 495.121094 171.261719 495.921875 171.421875 C 496.726562 171.582031 497.535156 171.703125 498.347656 171.78125 C 499.160156 171.863281 499.976562 171.902344 500.796875 171.902344 C 501.613281 171.902344 502.429688 171.863281 503.246094 171.78125 C 504.058594 171.703125 504.867188 171.582031 505.667969 171.421875 C 506.472656 171.261719 507.265625 171.066406 508.046875 170.828125 C 508.832031 170.589844 509.601562 170.3125 510.355469 170 C 511.113281 169.6875 511.851562 169.339844 512.570312 168.953125 C 513.292969 168.566406 513.992188 168.148438 514.675781 167.691406 C 515.355469 167.238281 516.011719 166.75 516.644531 166.234375 C 517.277344 165.714844 517.882812 165.164062 518.460938 164.585938 C 519.039062 164.007812 519.585938 163.402344 520.105469 162.769531 C 520.625 162.136719 521.113281 161.480469 521.566406 160.800781 C 522.019531 160.121094 522.441406 159.417969 522.828125 158.699219 C 523.210938 157.976562 523.5625 157.238281 523.875 156.480469 C 524.1875 155.726562 524.464844 154.957031 524.699219 154.171875 C 524.9375 153.390625 525.136719 152.597656 525.296875 151.796875 C 525.457031 150.992188 525.574219 150.183594 525.65625 149.371094 C 525.738281 148.554688 525.777344 147.742188 525.777344 146.921875 C 525.777344 146.105469 525.738281 145.289062 525.65625 144.472656 C 525.574219 143.660156 525.457031 142.851562 525.296875 142.050781 C 525.136719 141.246094 524.9375 140.453125 524.699219 139.671875 C 524.464844 138.886719 524.1875 138.117188 523.875 137.363281 C 523.5625 136.605469 523.210938 135.867188 522.828125 135.148438 C 522.441406 134.425781 522.019531 133.722656 521.566406 133.042969 C 521.113281 132.363281 520.625 131.707031 520.105469 131.074219 C 519.585938 130.441406 519.039062 129.835938 518.460938 129.257812 C 517.882812 128.679688 517.277344 128.132812 516.644531 127.613281 C 516.011719 127.09375 515.355469 126.605469 514.675781 126.152344 C 513.992188 125.699219 513.292969 125.277344 512.570312 124.890625 C 511.851562 124.503906 511.113281 124.15625 510.355469 123.84375 C 509.601562 123.53125 508.832031 123.253906 508.046875 123.015625 C 507.265625 122.78125 506.472656 122.582031 505.667969 122.421875 C 504.867188 122.261719 504.058594 122.140625 503.246094 122.0625 C 502.429688 121.980469 501.613281 121.941406 500.796875 121.941406 Z M 350.914062 159.414062 C 275.179688 159.414062 213.519531 221.074219 213.519531 296.804688 C 213.519531 372.535156 275.179688 434.199219 350.914062 434.199219 C 426.644531 434.199219 488.304688 372.535156 488.304688 296.804688 C 488.304688 221.074219 426.644531 159.414062 350.914062 159.414062 Z M 350.914062 184.394531 C 413.144531 184.394531 463.324219 234.574219 463.324219 296.804688 C 463.324219 359.035156 413.144531 409.21875 350.914062 409.21875 C 288.683594 409.21875 238.5 359.035156 238.5 296.804688 C 238.5 234.574219 288.683594 184.394531 350.914062 184.394531 Z M 350.914062 184.394531 " fill-opacity="1" fill-rule="nonzero"/></g></svg>