<svg xmlns="http://www.w3.org/2000/svg" xmlns:xlink="http://www.w3.org/1999/xlink" width="940" zoomAndPan="magnify" viewBox="0 0 705 591.000005" height="788" preserveAspectRatio="xMidYMid meet" version="1.0"><defs><clipPath id="8e22293e07"><path d="M 86.636719 20.703125 L 635.457031 20.703125 L 635.457031 569.523438 L 86.636719 569.523438 Z M 86.636719 20.703125 " clip-rule="nonzero"/></clipPath></defs><g clip-path="url(#8e22293e07)"><path fill="#ffffff" d="M 585.566406 20.703125 L 136.527344 20.703125 C 108.964844 20.703125 86.636719 43.03125 86.636719 70.597656 L 86.636719 519.632812 C 86.636719 547.199219 108.964844 569.523438 136.527344 569.523438 L 585.566406 569.523438 C 613.128906 569.523438 635.457031 547.199219 635.457031 519.632812 L 635.457031 70.597656 C 635.457031 43.03125 613.105469 20.703125 585.566406 20.703125 Z M 552.859375 257.046875 C 549.617188 257.34375 546.347656 257.542969 543.054688 257.542969 C 505.761719 257.542969 472.980469 238.386719 453.898438 209.371094 C 453.898438 285.433594 453.898438 372 453.898438 373.445312 C 453.898438 440.425781 399.589844 494.710938 332.632812 494.710938 C 265.675781 494.683594 211.367188 440.375 211.367188 373.421875 C 211.367188 306.441406 265.675781 252.15625 332.632812 252.15625 C 335.175781 252.15625 337.648438 252.378906 340.117188 252.53125 L 340.117188 312.300781 C 337.621094 312.003906 335.203125 311.554688 332.632812 311.554688 C 298.457031 311.554688 270.742188 339.269531 270.742188 373.445312 C 270.742188 407.621094 298.429688 435.335938 332.632812 435.335938 C 366.835938 435.335938 397.019531 408.394531 397.019531 374.21875 C 397.019531 372.847656 397.617188 95.566406 397.617188 95.566406 L 454.722656 95.566406 C 460.085938 146.632812 501.320312 186.945312 552.859375 190.636719 Z M 552.859375 257.046875 " fill-opacity="1" fill-rule="nonzero"/></g></svg>