<svg xmlns="http://www.w3.org/2000/svg" xmlns:xlink="http://www.w3.org/1999/xlink" width="940" zoomAndPan="magnify" viewBox="0 0 705 591.000005" height="788" preserveAspectRatio="xMidYMid meet" version="1.0"><defs><clipPath id="ac76c88f0f"><path d="M 77.632812 13.136719 L 627.203125 13.136719 L 627.203125 562.707031 L 77.632812 562.707031 Z M 77.632812 13.136719 " clip-rule="nonzero"/></clipPath></defs><g clip-path="url(#ac76c88f0f)"><path fill="#ffffff" d="M 352.417969 13.136719 C 200.628906 13.136719 77.632812 136.136719 77.632812 287.921875 C 77.632812 439.707031 200.628906 562.707031 352.417969 562.707031 C 504.203125 562.707031 627.203125 439.707031 627.203125 287.921875 C 626.964844 136.136719 503.964844 13.136719 352.417969 13.136719 Z M 510.625 364.765625 C 507.535156 384.988281 489.929688 399.738281 469.46875 399.738281 L 235.128906 399.738281 C 214.667969 399.738281 197.0625 384.988281 193.96875 364.765625 C 191.113281 345.972656 188.257812 319.800781 188.019531 287.683594 C 188.257812 255.566406 190.875 229.632812 193.96875 210.601562 C 197.0625 190.378906 214.667969 175.628906 235.128906 175.628906 L 469.46875 175.628906 C 489.929688 175.628906 507.535156 190.378906 510.625 210.601562 C 513.480469 229.394531 516.335938 255.566406 516.574219 287.683594 C 516.335938 319.800781 513.480469 345.972656 510.625 364.765625 Z M 510.625 364.765625 " fill-opacity="1" fill-rule="nonzero"/></g><path fill="#ffffff" d="M 317.683594 243.195312 L 317.683594 332.410156 L 400.710938 287.921875 Z M 317.683594 243.195312 " fill-opacity="1" fill-rule="nonzero"/></svg>